<svg width="85" height="17" fill="none" xmlns="http://www.w3.org/2000/svg"><path d="M10.332 14.866c-.476.406-1.078.728-1.806.966a7.392 7.392 0 01-2.226.336c-1.12 0-2.1-.217-2.94-.651a4.767 4.767 0 01-1.932-1.827c-.448-.784-.672-1.701-.672-2.751 0-1.148.231-2.163.693-3.045.476-.882 1.12-1.568 1.932-2.058.812-.504 1.729-.756 2.751-.756 1.05 0 1.946.231 2.688.693.756.448 1.309 1.113 1.659 1.995.35.868.448 1.925.294 3.171H3.528l.147-1.575H9.03l-.84.315c.056-.77-.098-1.358-.462-1.764-.35-.406-.84-.609-1.47-.609-.784 0-1.393.287-1.827.861-.42.56-.63 1.47-.63 2.73 0 .952.224 1.673.672 2.163.462.49 1.141.735 2.037.735.588 0 1.141-.084 1.659-.252a5.398 5.398 0 001.491-.819l.672 2.142zm9.425 1.323c-1.498 0-2.786-.287-3.864-.861a6.07 6.07 0 01-2.457-2.478c-.574-1.064-.861-2.331-.861-3.801 0-1.666.322-3.108.966-4.326a6.851 6.851 0 012.75-2.856c1.19-.672 2.59-1.008 4.2-1.008 1.12 0 2.136.147 3.046.441.91.294 1.7.721 2.373 1.281l-1.24 2.352c-.63-.504-1.26-.875-1.89-1.113-.63-.252-1.378-.371-2.246-.357-.994.028-1.841.266-2.541.714-.686.448-1.211 1.085-1.575 1.911-.35.826-.525 1.813-.525 2.961 0 1.456.35 2.59 1.05 3.402.7.812 1.778 1.218 3.234 1.218.504 0 1.015-.049 1.533-.147a12.928 12.928 0 001.554-.441l-.798 1.113.315-4.158h-2.94l.189-2.289h5.88l-.546 7.287a8.67 8.67 0 01-1.638.63 12.48 12.48 0 01-1.911.378c-.672.098-1.358.147-2.058.147zM27.865 16l1.176-14.952h10.311l-.21 2.541h-7.077l-.798 9.87h7.098L38.155 16h-10.29zm3.36-6.321l.19-2.562h7.034l-.23 2.562h-6.994zM40.227 16l1.176-14.952h2.415l7.308 10.29-.714.399.86-10.689h3.067L53.163 16h-2.457L43.46 5.752l.693-.441L43.272 16h-3.045zm22.948.189c-1.456 0-2.716-.287-3.78-.861a6.105 6.105 0 01-2.436-2.478c-.56-1.078-.84-2.352-.84-3.822 0-1.652.315-3.087.945-4.305.644-1.232 1.547-2.184 2.709-2.856C60.949 1.195 62.328.859 63.91.859c1.022 0 1.974.147 2.856.441.896.294 1.68.721 2.352 1.281l-1.24 2.352c-.615-.504-1.231-.868-1.847-1.092a5.488 5.488 0 00-1.995-.357c-.98 0-1.813.224-2.5.672-.671.448-1.19 1.092-1.553 1.932-.364.826-.546 1.813-.546 2.961 0 1.456.329 2.576.987 3.36.672.77 1.63 1.155 2.877 1.155.63 0 1.274-.112 1.932-.336.658-.238 1.35-.609 2.079-1.113l.86 2.352c-.545.546-1.273.973-2.183 1.281a8.968 8.968 0 01-2.814.441zM73.525 16l.503-6.72.567 1.89-6.069-10.122h3.654l3.906 7.077h-.714l4.998-7.077h3.78L76.527 11.17l.798-1.89L76.8 16h-3.276z" fill="#3C227C"/></svg>